<?xml version="1.0" standalone="no"?><!DOCTYPE svg PUBLIC "-//W3C//DTD SVG 1.1//EN" "http://www.w3.org/Graphics/SVG/1.1/DTD/svg11.dtd"><svg t="1490592895563" class="icon" style="" viewBox="0 0 1024 1024" version="1.1" xmlns="http://www.w3.org/2000/svg" p-id="2911" xmlns:xlink="http://www.w3.org/1999/xlink" width="200" height="200"><defs><style type="text/css"></style></defs><path d="M352 576 224 576c-17.664 0-32-14.304-32-32 0-17.664 14.336-32 32-32l96 0 0-96c0-17.664 14.336-32 32-32s32 14.336 32 32l0 128C384 561.696 369.664 576 352 576z" p-id="2912"></path><path d="M702.144 666.88c-61.952 0-113.664 43.296-127.296 101.12l-123.808 0c-13.568-57.888-65.344-101.216-127.328-101.216-72.288 0-131.104 58.784-131.104 131.072 0 72.352 58.816 131.232 131.104 131.232 60.384 0 110.848-41.344 125.984-97.056l126.432 0c15.104 55.712 65.568 96.992 126.016 96.992 72.224 0 131.008-58.784 131.008-131.072S774.368 666.88 702.144 666.88zM323.744 865.056c-36.992 0-67.104-30.144-67.104-67.232 0-36.96 30.08-67.072 67.104-67.072 36.992 0 67.072 30.08 67.072 67.072C390.816 834.912 360.736 865.056 323.744 865.056zM702.144 864.992c-36.96 0-67.072-30.08-67.072-67.072s30.08-67.072 67.072-67.072c36.928 0 67.008 30.08 67.008 67.072S739.104 864.992 702.144 864.992z" p-id="2913"></path><path d="M864.032 96 399.744 96C355.776 96 320 131.776 320 175.744l0 92.512L125.344 366.08c-1.376 0.704-2.72 1.504-4 2.4-36.096 25.376-56 64.96-56 111.52l0 321.984c0 17.696 14.336 32 32 32s32-14.304 32-32L129.344 480c0-25.024 9.088-44.512 27.04-57.888l209.984-105.504c1.44-0.704 2.368-1.984 3.648-2.88 1.888-1.312 3.776-2.496 5.312-4.16 1.408-1.536 2.336-3.328 3.424-5.056 1.088-1.728 2.24-3.328 2.976-5.28 0.8-2.176 1.024-4.416 1.344-6.688C383.328 290.976 384 289.6 384 288L384 175.744C384 167.072 391.072 160 399.744 160l464.288 0C881.664 160 896 174.592 896 192.512L896 800c0 17.696 14.304 32 32 32s32-14.304 32-32L960 192.512C960 139.296 916.928 96 864.032 96z" p-id="2914"></path></svg>