<?xml version="1.0" standalone="no"?><!DOCTYPE svg PUBLIC "-//W3C//DTD SVG 1.1//EN" "http://www.w3.org/Graphics/SVG/1.1/DTD/svg11.dtd"><svg t="1490866940110" class="icon" style="" viewBox="0 0 1197 1024" version="1.1" xmlns="http://www.w3.org/2000/svg" p-id="7440" xmlns:xlink="http://www.w3.org/1999/xlink" width="233.7890625" height="200"><defs><style type="text/css"></style></defs><path d="M145.8701 355.818456c-9.759045-0.478746-18.892038 7.033878-19.591743 17.161188C125.615479 383.143782 133.275408 391.871682 143.439545 392.571387c1.767676 0.11048 11.342588 0.699705 26.220528 0.699705 61.13213 0 211.900165-9.832698 279.845213-101.788679C455.544846 283.306912 453.813997 271.780191 445.638495 265.740632 437.426167 259.701072 425.936273 261.431921 419.896713 269.607423 347.385169 367.75027 147.932389 356.039416 145.8701 355.818456z" p-id="7441" fill="#bfbfbf"></path><path d="M1034.311444 392.571387c10.127311-0.699705 17.824067-9.427606 17.161188-19.591743-0.699705-10.127311-9.611738-17.345321-19.591743-17.161188-2.062289 0.147306-201.367762 12.152773-274.026613-86.211034-6.076386-8.175502-17.639934-9.869525-25.741782-3.866791-8.212328 6.076386-9.943178 17.603107-3.866791 25.778609 67.981874 91.992807 218.713084 101.788679 279.88204 101.788679C1022.932029 393.271093 1032.543768 392.681867 1034.311444 392.571387z" p-id="7442" fill="#bfbfbf"></path><path d="M876.288571 189.583255 876.288571 56.528807 952.335467 189.583255 971.558944 189.583255 990.745594 189.583255 990.745594 5.045242 972.700568 5.045242 954.729195 5.045242 954.729195 134.601165 880.707761 5.045242 860.489966 5.045242 840.272171 5.045242 840.272171 189.583255 858.317198 189.583255Z" p-id="7443" fill="#bfbfbf"></path><path d="M1172.926706 26.588794c-15.945911-17.67676-37.563116-26.588794-64.814788-26.588794-27.104366 0-48.684744 8.875207-64.667482 26.588794s-23.93728 41.61404-23.93728 71.738186c0 29.534921 7.991369 52.956628 23.93728 70.265123 15.982738 17.345321 37.563116 25.999568 64.667482 25.999568 27.251672 0 48.868877-8.654247 64.814788-25.999568 15.982738-17.308495 23.900453-40.730202 23.900453-70.265123C1196.863986 68.202834 1188.909444 44.302381 1172.926706 26.588794zM1145.048982 144.949435C1136.136949 156.21837 1123.83687 161.852838 1108.148745 161.852838c-15.761778 0-28.025031-5.634467-36.863411-16.903402-8.801554-11.268935-13.220744-26.84658-13.220744-46.843415 0-20.438754 4.41919-36.421492 13.25757-47.948213 8.912033-11.563547 21.138459-17.345321 36.826584-17.345321 15.724951 0 28.025031 5.744947 36.900237 17.345321 8.83838 11.526721 13.294397 27.509458 13.294397 47.948213C1158.343379 118.102855 1153.887362 133.717327 1145.048982 144.949435z" p-id="7444" fill="#bfbfbf"></path><path d="M1150.609796 236.242538c-10.164137 0-18.413292 8.249155-18.413292 18.413292l0 529.345321c0 20.144142-15.909084 36.568798-35.758613 37.636769-1.39941-3.829965-3.314393-7.54945-5.560814-11.195282-0.294613-0.478746-0.699705-0.920665-0.957491-1.39941-1.50989-2.283248-2.946127-4.52967-4.787456-6.702438-0.699705-0.773358-1.583543-1.50989-2.320075-2.320075-0.478746-0.552399-0.994318-0.994318-1.50989-1.50989-2.430555-2.430555-5.118895-4.787456-8.028195-6.997051-1.178451-0.920665-2.393728-1.841329-3.682658-2.725167-2.320075-1.583543-4.750629-3.056606-7.254837-4.492843-1.436237-0.773358-2.614687-1.767676-4.087751-2.504208-0.441919-0.22096-0.994318-0.368266-1.436237-0.589225-5.229375-2.577861-10.900669-4.861109-16.903402-6.886571-2.283248-0.773358-4.566496-1.436237-6.923398-2.135942-6.260519-1.767676-12.778825-3.314393-19.739049-4.41919-1.657196-0.257786-3.424872-0.368266-5.118895-0.589225-6.776091-0.847011-13.773142-1.362584-21.02798-1.546717-1.583543-0.036827-3.093433-0.147306-4.676976-0.147306-8.985687-0.036827-18.376466 0.552399-28.025031 1.694023-0.626052 0.073653-1.215277 0.184133-1.878156 0.257786-41.061641 5.155722-87.352658 21.322592-134.380206 53.067108-0.626052 0.405092-1.252104 0.699705-1.878156 1.104798L409.990362 821.601093c-1.178451-0.810185-2.356901-1.362584-3.535352-2.172768-9.648565-6.444652-19.260304-12.226426-28.835215-17.418974-1.583543-0.847011-3.13026-1.804503-4.713803-2.614687-10.532403-5.487161-20.954326-10.200964-31.26577-14.288715-1.730849-0.699705-3.424872-1.28893-5.155722-1.951809-20.9175-7.807236-41.098468-12.852478-60.211465-15.467165-1.951809-0.257786-3.903618-0.552399-5.8186-0.773358-8.83838-0.994318-17.455801-1.546717-25.704956-1.546717-2.283248 0-4.382364 0.11048-6.628785 0.184133-6.591959 0.184133-12.962958 0.662879-19.112997 1.39941-2.062289 0.257786-4.161404 0.405092-6.15004 0.736532-6.960224 1.067971-13.441703 2.614687-19.702223 4.41919-2.320075 0.662879-4.566496 1.28893-6.776091 2.062289-6.15004 2.062289-11.931813 4.345537-17.234841 6.997051-0.405092 0.184133-0.883838 0.294613-1.252104 0.515572-1.325757 0.699705-2.356901 1.50989-3.609005 2.246422-2.79882 1.583543-5.487161 3.167086-7.991369 4.934762-1.141624 0.773358-2.209595 1.583543-3.277566 2.393728-3.056606 2.320075-5.855427 4.787456-8.396461 7.32849-0.405092 0.441919-0.847011 0.810185-1.28893 1.252104-0.773358 0.810185-1.694023 1.583543-2.393728 2.393728-1.951809 2.283248-3.424872 4.64015-4.971589 6.997051-0.22096 0.331439-0.515572 0.662879-0.736532 0.957491-2.320075 3.682658-4.235057 7.43897-5.634467 11.342588l-55.018917 0c-20.80702 0-37.710422-16.903402-37.710422-37.673596L36.863411 82.160109c0-20.80702 16.903402-37.710422 37.710422-37.710422l679.560958 0c10.164137 0 18.413292-8.249155 18.413292-18.413292s-8.249155-18.413292-18.413292-18.413292L74.537006 7.623103c-41.098468 0-74.537006 33.438538-74.537006 74.537006l0 701.841042c0 41.098468 33.438538 74.50018 74.537006 74.50018l55.018917 0c3.461699 10.274617 9.574912 20.475581 18.707905 29.97684 2.356901 2.430555 5.376681 4.198231 8.654247 5.082069 92.140114 23.863627 115.009422 53.398547 120.42293 68.865712 5.92908 16.940229-3.866791 30.602891-4.52967 31.449903-6.15004 7.991369-4.787456 19.444436 3.13026 25.704956 7.991369 6.334172 19.51809 5.008415 25.852262-2.982953 8.506941-10.716536 20.291448-36.531972 10.606056-65.367187-13.183917-39.367618-60.579731-70.265123-140.861685-91.882328-6.444652-7.770409-8.396461-14.141408-8.359635-19.223477 0.036827-5.008415 2.541034-10.016831 6.886571-14.693807 2.541034-2.725167 5.8186-5.303028 9.574912-7.696756 1.104798-0.736532 2.135942-1.39941 3.314393-2.099115 3.351219-1.878156 7.43897-3.424872 11.526721-4.971589 2.135942-0.773358 4.050924-1.767676 6.334172-2.467381 13.58901-4.050924 30.234626-6.260519 49.16349-5.634467 2.283248 0.11048 4.750629 0.478746 7.070704 0.662879 6.886571 0.441919 13.957275 1.215277 21.322592 2.467381 4.271884 0.773358 8.654247 1.804503 13.036611 2.79882 5.781774 1.325757 11.674027 2.946127 17.713587 4.787456 5.192548 1.62037 10.45875 3.388046 15.761778 5.413508 5.92908 2.246422 11.96864 4.971589 18.045026 7.733583 5.229375 2.430555 10.45875 4.750629 15.761778 7.54945 9.206646 4.934762 18.523772 10.642883 27.914551 16.903402 2.283248 1.546717 4.566496 2.651514 6.849745 4.271884 0 0 0.036827 0 0.036827 0 133.459541 94.018269 119.060347 141.45091 119.207653 141.45091-4.750629 8.985687-1.28893 20.144142 7.696756 24.894771 2.725167 1.436237 5.671294 2.135942 8.580594 2.135942 6.628785 0 12.999784-3.572179 16.314177-9.832698 5.560814-10.56923 24.121413-63.525858-86.763432-155.260879l308.901388 0c-110.921672 91.735021-92.361073 144.728476-86.763432 155.260879 3.388046 6.407826 10.090484 10.200964 16.903402 10.200964 2.79882 0 5.597641-0.662879 8.249155-2.025462 8.985687-4.750629 12.668345-15.356686 7.917716-24.342372-0.147306-0.515572-15.614472-48.132346 119.612745-143.108106 11.784507-8.285981 23.458534-15.0989 34.948428-21.175286 4.235057-2.283248 8.433288-4.050924 12.668345-6.03956 7.144357-3.388046 14.251888-6.518305 21.212112-9.132993 4.676976-1.767676 9.317126-3.314393 13.920449-4.750629 6.518305-2.025462 12.889304-3.756312 19.112997-5.155722 4.161404-0.920665 8.359635-1.951809 12.410559-2.614687 7.070704-1.215277 13.883622-1.951809 20.512407-2.393728 2.725167-0.22096 5.560814-0.626052 8.249155-0.736532 18.707905-0.589225 35.169388 1.583543 48.611091 5.597641 2.688341 0.773358 4.971589 1.951809 7.43897 2.9093 3.719485 1.436237 7.475797 2.79882 10.56923 4.52967 1.215277 0.699705 2.320075 1.39941 3.461699 2.172768 3.719485 2.356901 6.923398 4.897936 9.464432 7.586276 4.30871 4.713803 6.849745 9.685392 6.923398 14.656981 0.073653 5.155722-1.841329 11.526721-8.359635 19.333957-80.281954 21.617205-127.604114 52.514709-140.824858 91.845501-9.685392 28.872042 2.135942 54.687478 10.606056 65.404014 6.297346 7.954542 17.639934 9.206646 25.557649 3.056606 7.991369-6.15004 9.464432-17.67676 3.424872-25.741782-0.441919-0.589225-10.495576-14.325541-4.492843-31.449903 5.376681-15.467165 28.282817-45.002086 120.386104-68.865712 3.277566-0.847011 6.260519-2.614687 8.617421-5.082069 9.206646-9.611738 15.356686-19.849529 18.818385-30.197799 40.140977-1.141624 72.474718-33.917284 72.474718-74.316047L1169.059915 254.65583C1169.023089 244.454866 1160.773934 236.242538 1150.609796 236.242538z" p-id="7445" fill="#bfbfbf"></path><path d="M423.689851 243.423721c8.764727 0 17.566281-0.736532 25.962742-2.246422 9.980004-1.841329 16.645616-11.416241 14.841113-21.433072C462.652377 209.727397 453.077465 202.951305 443.060634 204.939941c-23.311228 4.198231-48.647918-0.073653-59.659066-6.628785C374.673668 193.081781 363.33108 195.954254 358.175358 204.682155 352.945983 213.410055 355.818456 224.715817 364.546357 229.908365 379.056031 238.599439 401.225635 243.423721 423.689851 243.423721z" p-id="7446" fill="#bfbfbf"></path><path d="M730.74991 212.784003c-10.016831-2.393728-19.849529 3.756312-22.169604 13.662663-2.320075 9.906351 3.793138 19.812702 13.662663 22.169604 5.560814 1.325757 11.821334 1.951809 18.523772 1.951809 20.770193 0 45.591311-6.076386 65.993239-16.756096 8.985687-4.713803 12.484212-15.835431 7.770409-24.857944-4.750629-9.022513-15.872258-12.484212-24.894771-7.770409C768.681292 212.157952 743.123642 215.693304 730.74991 212.784003z" p-id="7447" fill="#bfbfbf"></path><path d="M584.511544 645.606847c141.929655 0 245.154571-80.797526 249.463281-84.222398 7.954542-6.334172 9.243473-17.89772 2.946127-25.852262-6.334172-7.991369-17.89772-9.317126-25.852262-2.982953-0.957491 0.773358-97.848234 76.231029-226.557146 76.231029-126.720276 0-196.285694-73.542689-196.985399-74.27922C380.565921 527.025246 368.965547 526.583327 361.526577 533.433072 354.05078 540.319643 353.535208 551.883191 360.384953 559.395814 363.588866 562.894339 440.887866 645.606847 584.511544 645.606847z" p-id="7448" fill="#bfbfbf"></path></svg>