<?xml version="1.0" standalone="no"?><!DOCTYPE svg PUBLIC "-//W3C//DTD SVG 1.1//EN" "http://www.w3.org/Graphics/SVG/1.1/DTD/svg11.dtd"><svg t="1493979189107" class="icon" style="" viewBox="0 0 1024 1024" version="1.1" xmlns="http://www.w3.org/2000/svg" p-id="4780" xmlns:xlink="http://www.w3.org/1999/xlink" width="200" height="200"><defs><style type="text/css"></style></defs><path d="M668.8 384c0-140.8-115.2-256-256-256s-256 115.2-256 256c0 92.8 51.2 172.8 124.8 217.6-105.6 44.8-192 137.6-217.6 256-3.2 16 6.4 35.2 22.4 38.4h6.4c16 0 28.8-9.6 32-25.6 32-134.4 153.6-233.6 288-233.6h3.2c140.8 0 252.8-115.2 252.8-252.8z m-448 0c0-105.6 86.4-192 192-192s192 86.4 192 192-86.4 192-192 192-192-86.4-192-192zM732.8 544c-19.2 0-32 16-28.8 35.2 0 16 16 28.8 32 28.8h3.2c105.6-6.4 188.8-96 188.8-201.6s-83.2-192-185.6-201.6c-19.2 0-32 12.8-35.2 28.8 0 19.2 12.8 32 28.8 35.2 70.4 6.4 128 67.2 128 137.6 0 73.6-57.6 134.4-131.2 137.6zM960 758.4c-9.6-41.6-41.6-92.8-80-118.4-16-9.6-35.2-3.2-44.8 9.6-9.6 16-3.2 35.2 9.6 44.8 22.4 12.8 44.8 51.2 51.2 76.8 3.2 16 16 25.6 32 25.6h6.4c19.2-3.2 28.8-19.2 25.6-38.4zM620.8 640l-19.2-12.8c-16-9.6-35.2-6.4-44.8 9.6s-6.4 35.2 9.6 44.8l19.2 12.8c57.6 41.6 102.4 105.6 118.4 176 3.2 16 16 25.6 32 25.6h6.4c16-3.2 28.8-22.4 22.4-38.4-22.4-89.6-73.6-166.4-144-217.6z" fill="#333333" p-id="4781"></path></svg>