<?xml version="1.0" standalone="no"?><!DOCTYPE svg PUBLIC "-//W3C//DTD SVG 1.1//EN" "http://www.w3.org/Graphics/SVG/1.1/DTD/svg11.dtd"><svg t="1493349303753" class="icon" style="" viewBox="0 0 1024 1024" version="1.1" xmlns="http://www.w3.org/2000/svg" p-id="4966" xmlns:xlink="http://www.w3.org/1999/xlink" width="200" height="200"><defs><style type="text/css"></style></defs><path d="M929.248 288l-75.616 0c18.688 0 35.52-37.376 43.168-62.016 9.376-30.432 3.648-60.352-16.576-86.944-1.376-1.824-2.944-3.392-4.672-4.864-97.28-83.168-228.96-3.04-282.496 36.288-14.432 10.016-18.08 29.824-8.16 44.352 9.984 14.624 29.888 18.368 44.48 8.384 0.288-0.192 2.624-1.888 2.944-2.08 30.592-22.528 134.496-91.2 198.88-40.448 6.016 8.96 7.328 17.376 4.448 26.848-7.616 24.64-39.68 47.36-55.2 52.544-60.192 22.592-79.808 24.896-104.992 26.72C673.344 286.944 671.584 288 669.664 288l-88.416 0c-1.408 0-2.528-4.096-4.544-5.952-32.992-30.752-111.2-103.008-126.72-113.376C332.448 88.064 225.664 75.52 157.088 134.176c-1.728 1.472-3.296 3.2-4.672 4.992C132.16 165.792 126.432 195.552 135.84 225.984 143.456 250.656 160.32 288 178.88 288L97.344 288C79.68 288 64 303.168 64 320.832l0 160c0 17.664 0 32 32 32l0 312.896C96 881.536 138.624 928 189.344 928l645.28 0C885.92 928 928 880.608 928 825.728l0-312.896c32 0 32-14.336 32-32l0-160C960 303.168 946.944 288 929.248 288zM357.216 286.816C332 284.96 312.32 282.464 251.04 259.488 236.672 254.688 204.608 232.032 196.992 207.424 194.048 197.952 195.424 189.6 201.408 180.64c64.064-50.432 169.6 11.264 214.656 42.144C422.4 227.328 453.664 256 489.376 288l-126.368 0C361.056 288 359.296 286.976 357.216 286.816zM896 352l0 96L131.968 448C131.04 448 128 449.152 128 449.248L128 352 896 352zM834.624 864 189.344 864C172.832 864 160 843.328 160 825.728L160 512l704 0 0 313.728C864 844.832 850.368 864 834.624 864z" p-id="4967" fill="#ffffff"></path></svg>