<?xml version="1.0" standalone="no"?><!DOCTYPE svg PUBLIC "-//W3C//DTD SVG 1.1//EN" "http://www.w3.org/Graphics/SVG/1.1/DTD/svg11.dtd"><svg t="1493349313062" class="icon" style="" viewBox="0 0 1024 1024" version="1.1" xmlns="http://www.w3.org/2000/svg" p-id="5135" xmlns:xlink="http://www.w3.org/1999/xlink" width="200" height="200"><defs><style type="text/css"></style></defs><path d="M576 256l-128 0c-17.664 0-32 14.336-32 32s14.336 32 32 32l128 0c17.696 0 32-14.336 32-32S593.696 256 576 256z" p-id="5136" fill="#ffffff"></path><path d="M576 384l-128 0c-17.664 0-32 14.336-32 32s14.336 32 32 32l128 0c17.696 0 32-14.336 32-32S593.696 384 576 384z" p-id="5137" fill="#ffffff"></path><path d="M256 640l64 0 384 0 64 0c17.696 0 32-14.304 32-32s-14.304-32-32-32l-32 0L736 128c0-17.664-14.304-32-32-32L320 96C302.336 96 288 110.336 288 128l0 448L256 576c-17.664 0-32 14.304-32 32S238.336 640 256 640zM352 160l320 0 0 416L352 576 352 160z" p-id="5138" fill="#ffffff"></path><path d="M896 304.992C896 245.216 862.144 224 833.184 224L832 224c-17.696 0-31.392 14.336-31.392 32 0 16.448 12.928 30.016 28.96 31.808C830.656 290.72 832 296.704 832.064 306.88L859.456 768 164.576 768 192 304.992c0-8.608 2.24-14.592 3.872-17.248C211.712 285.856 224 272.352 224 256c0-17.664-14.336-32-32-32C155.52 224 128 258.816 128.064 303.104L96 844.32C96 890.464 127.776 928 166.816 928l698.368 0c31.264 0 62.816-25.888 62.752-85.6L896 304.992zM860.992 864 168 864.192C165.824 863.2 160 855.52 159.936 846.208L160.768 832l702.496 0L864 844.32C864 853.888 862.368 860.576 860.992 864z" p-id="5139" fill="#ffffff"></path></svg>