<?xml version="1.0" standalone="no"?><!DOCTYPE svg PUBLIC "-//W3C//DTD SVG 1.1//EN" "http://www.w3.org/Graphics/SVG/1.1/DTD/svg11.dtd"><svg t="1490592933088" class="icon" style="" viewBox="0 0 1024 1024" version="1.1" xmlns="http://www.w3.org/2000/svg" p-id="3282" xmlns:xlink="http://www.w3.org/1999/xlink" width="200" height="200"><defs><style type="text/css"></style></defs><path d="M287.008 512 224.992 512c-17.664 0-32-14.336-32-32s14.336-32 32-32l62.016 0c17.664 0 32 14.336 32 32S304.672 512 287.008 512z" p-id="3283"></path><path d="M882.624 128 141.44 128C98.72 128 64 162.688 64 205.376l0 154.624 0 8.48 0 458.016c0 38.304 31.936 69.472 71.168 69.472l753.696 0c39.264 0 71.168-31.168 71.168-69.472L960.032 368.48 960.032 205.376C960 162.688 925.28 128 882.624 128zM896 205.376l0 131.104-223.488 0L672.512 192l210.112 0C889.984 192 896 198.016 896 205.376zM446.688 192l161.824 0 0 360.448-70.784-28.224c-7.712-3.104-16.352-3.04-24 0.128l-67.04 27.52L446.688 192zM128 205.376C128 198.016 134.016 192 141.44 192l241.248 0 0 144.48L128 336.48 128 205.376zM888.832 831.968 135.168 831.968C130.944 831.968 128 829.088 128 826.496L128 400.48l254.688 0 0 199.168c0 10.656 5.312 20.64 14.176 26.592 5.344 3.552 11.552 5.408 17.824 5.408 4.096 0 8.256-0.768 12.16-2.4l99.232-40.736 102.592 40.864c9.856 3.968 21.024 2.72 29.824-3.232 8.768-5.984 14.016-15.872 14.016-26.496l0-199.168L896 400.48l0 426.016C896 829.088 893.056 831.968 888.832 831.968z" p-id="3284"></path></svg>